<mxfile host="drawio-plugin" modified="2022-02-19T08:10:56.499Z" agent="5.0 (Macintosh; Intel Mac OS X 12_0_1) AppleWebKit/537.36 (KHTML, like Gecko) Chrome/89.0.4389.114 Safari/537.36" etag="DyUpDydb25xUOnhYzZCK" version="15.5.4" type="embed"><diagram id="23iRSUPoRavnBvh4doch" name="Page-1"><mxGraphModel dx="656" dy="633" grid="1" gridSize="10" guides="1" tooltips="1" connect="1" arrows="1" fold="1" page="1" pageScale="1" pageWidth="827" pageHeight="1169" math="0" shadow="0"><root><mxCell id="0"/><mxCell id="1" parent="0"/><mxCell id="2" style="edgeStyle=orthogonalEdgeStyle;rounded=0;orthogonalLoop=1;jettySize=auto;html=1;" edge="1" parent="1" source="3" target="9"><mxGeometry relative="1" as="geometry"/></mxCell><mxCell id="3" value="START" style="rounded=1;whiteSpace=wrap;html=1;" vertex="1" parent="1"><mxGeometry x="299" y="30" width="120" height="60" as="geometry"/></mxCell><mxCell id="37" value="" style="edgeStyle=orthogonalEdgeStyle;rounded=0;orthogonalLoop=1;jettySize=auto;html=1;" edge="1" parent="1" source="9" target="36"><mxGeometry relative="1" as="geometry"/></mxCell><mxCell id="9" value="Input NAME" style="shape=parallelogram;perimeter=parallelogramPerimeter;whiteSpace=wrap;html=1;fixedSize=1;" vertex="1" parent="1"><mxGeometry x="284" y="150" width="150" height="60" as="geometry"/></mxCell><mxCell id="35" value="END" style="rounded=1;whiteSpace=wrap;html=1;" vertex="1" parent="1"><mxGeometry x="440" y="290" width="120" height="60" as="geometry"/></mxCell><mxCell id="41" style="edgeStyle=orthogonalEdgeStyle;rounded=0;orthogonalLoop=1;jettySize=auto;html=1;" edge="1" parent="1" source="36" target="35"><mxGeometry relative="1" as="geometry"/></mxCell><mxCell id="43" value="NO" style="edgeLabel;html=1;align=center;verticalAlign=middle;resizable=0;points=[];" vertex="1" connectable="0" parent="41"><mxGeometry x="-0.0826" y="-1" relative="1" as="geometry"><mxPoint x="1" y="1" as="offset"/></mxGeometry></mxCell><mxCell id="44" style="edgeStyle=orthogonalEdgeStyle;rounded=0;orthogonalLoop=1;jettySize=auto;html=1;entryX=1;entryY=0.5;entryDx=0;entryDy=0;" edge="1" parent="1" source="36" target="40"><mxGeometry relative="1" as="geometry"/></mxCell><mxCell id="45" value="YES" style="edgeLabel;html=1;align=center;verticalAlign=middle;resizable=0;points=[];" vertex="1" connectable="0" parent="44"><mxGeometry x="-0.451" y="2" relative="1" as="geometry"><mxPoint as="offset"/></mxGeometry></mxCell><mxCell id="36" value="if less than the size of NAME repetitions" style="rhombus;whiteSpace=wrap;html=1;" vertex="1" parent="1"><mxGeometry x="319" y="280" width="80" height="80" as="geometry"/></mxCell><mxCell id="40" value="OUTPUT NAME next symbol" style="shape=parallelogram;perimeter=parallelogramPerimeter;whiteSpace=wrap;html=1;fixedSize=1;" vertex="1" parent="1"><mxGeometry x="134" y="290" width="150" height="60" as="geometry"/></mxCell></root></mxGraphModel></diagram></mxfile>